# xmcd
#
# Track frame offsets: 
#        150
#        14818
#        30415
#        49373
#        76007
#        97315
#        115418
#        128851
#
# Disc length: 1991 seconds
#
# Revision: 0
# Processed by: cddbd v1.5.2PL0 Copyright (c) Steve Scherf et al.
# Submitted via: ExactAudioCopyFreeDBPlugin 1.0
#
DISCID=6907c508
DTITLE=RWC - Our Lives
DYEAR=2013
DGENRE=Blues
TTITLE0=Sacrifice
TTITLE1=Flat City
TTITLE2=Uncle Herbert
TTITLE3=Go There Now
TTITLE4=Anna
TTITLE5=Dreams
TTITLE6=Our Lives
TTITLE7=Digger
EXTD=
EXTT0=
EXTT1=
EXTT2=
EXTT3=
EXTT4=
EXTT5=
EXTT6=
EXTT7=
PLAYORDER=
